<?xml version="1.0" encoding="utf-8"?>
<!-- Generator: Adobe Illustrator 25.3.1, SVG Export Plug-In . SVG Version: 6.00 Build 0)  -->
<svg version="1.1" id="Camada_1" xmlns="http://www.w3.org/2000/svg" xmlns:xlink="http://www.w3.org/1999/xlink" x="0px" y="0px"
	 viewBox="0 0 157 75" style="enable-background:new 0 0 157 75;" xml:space="preserve">
<style type="text/css">
	.st0{fill:url(#SVGID_1_);}
	.st1{fill:#FFFFFF;}
	.st2{fill:#29292E;}
</style>
<g>
	<g>
		<g>
			<linearGradient id="SVGID_1_" gradientUnits="userSpaceOnUse" x1="12.1179" y1="24.6466" x2="65.5725" y2="78.1012">
				<stop  offset="0" style="stop-color:#00F260"/>
				<stop  offset="1" style="stop-color:#0575E6"/>
			</linearGradient>
			<path class="st0" d="M46.8,6.7l26.6,55c1.1,2.2,1.7,3.9,1.7,5c0,2.4-1.9,4.5-5.7,6.4c-2.2,1.1-4,1.7-5.3,1.7
				c-1.3,0-2.3-0.3-3.2-0.9c-0.8-0.6-1.4-1.2-1.8-1.9c-0.4-0.7-0.9-1.6-1.5-3l-5.1-10.6H25.2L20.1,69c-0.7,1.3-1.2,2.3-1.5,2.9
				c-0.4,0.6-1,1.2-1.8,1.8c-0.8,0.6-1.9,0.9-3.2,0.9c-1.3,0-3-0.6-5.3-1.7c-3.8-1.8-5.7-3.9-5.7-6.3c0-1.1,0.6-2.8,1.7-5L30.9,6.6
				c0.7-1.5,1.8-2.7,3.3-3.6c1.5-0.9,3-1.4,4.7-1.4C42.4,1.5,45,3.2,46.8,6.7z"/>
		</g>
		<path class="st1" d="M37.9,46.7h2.9c4.7,0,8.6-3.8,8.6-8.6s-3.8-8.6-8.6-8.6H35c-4.7,0-8.6,3.8-8.6,8.6c0,5.2,3.5,8.5,11.4,12.1
			V46.7z"/>
	</g>
	<g>
		<path class="st2" d="M102.3,44.2c0.1-1.4,1.1-2,2.9-2c0.9,0,1.6,0.1,2.1,0.2c0.5,0.1,0.8,0.4,1,0.8s0.3,0.7,0.3,1
			c0,0.3,0.1,0.7,0.1,1.3V58c0,0.6,0,1-0.1,1.3c0,0.3-0.1,0.6-0.3,1c-0.3,0.6-1.2,0.9-2.5,0.9c-1.3,0-2.2-0.2-2.7-0.5
			c-0.4-0.3-0.7-0.8-0.8-1.4c-0.9,1.3-2.4,1.9-4.5,1.9c-2.1,0-4-1-5.8-2.9c-1.8-1.9-2.7-4.1-2.7-6.7c0-2.5,0.9-4.7,2.7-6.6
			c1.8-1.9,3.8-2.8,5.9-2.8c0.8,0,1.6,0.1,2.3,0.4s1.1,0.6,1.4,0.8C101.9,43.7,102.1,43.9,102.3,44.2z M95.7,51.7
			c0,0.8,0.3,1.5,0.9,2.2c0.6,0.6,1.4,1,2.3,1s1.6-0.3,2.2-1c0.6-0.7,0.9-1.4,0.9-2.2s-0.3-1.5-0.9-2.2c-0.6-0.7-1.3-1-2.3-1
			s-1.7,0.3-2.3,1C96,50.2,95.7,50.9,95.7,51.7z"/>
		<path class="st2" d="M111.6,59.6c-0.5-0.3-0.7-0.7-0.7-1.4c0-0.6,0.5-1.6,1.4-2.9c0.3-0.4,0.7-0.6,1.3-0.6c0.6,0,1.4,0.3,2.4,0.9
			c1,0.6,1.9,0.9,2.8,0.9c1.5,0,2.2-0.3,2.2-0.9c0-0.5-0.8-0.8-2.4-1c-1.5-0.2-3-0.8-4.5-1.7c-0.7-0.4-1.3-1.1-1.7-2.1
			c-0.5-0.9-0.7-2-0.7-3.3c0-3.8,2.6-5.7,7.9-5.7c1.7,0,3.5,0.4,5.3,1.2c0.8,0.4,1.3,0.9,1.3,1.5c0,0.6-0.3,1.3-0.8,2.1
			c-0.5,0.8-1.1,1.3-1.6,1.3c-0.3,0-0.8-0.2-1.6-0.5c-0.8-0.4-1.6-0.5-2.6-0.5c-1.4,0-2.1,0.3-2.1,0.8c0,0.7,0.8,1.2,2.5,1.4
			c1.6,0.2,3.1,0.6,4.6,1.4c0.7,0.3,1.3,0.9,1.8,1.8c0.5,0.8,0.7,1.9,0.7,3.1s-0.2,2.3-0.7,3.2c-0.5,0.9-1.1,1.5-2,2
			c-1.5,0.7-3.5,1.1-5.8,1.1S113.8,60.9,111.6,59.6z"/>
		<path class="st2" d="M140.5,51.7l4.8,4c0.6,0.5,1,0.9,1.1,1.2c0.2,0.3,0.2,0.5,0.2,0.8c0,0.6-0.4,1.4-1.1,2.4
			c-0.8,1-1.5,1.5-2.2,1.5c-0.5,0-1.3-0.4-2.2-1.1l-0.4-0.3c-0.6-0.5-1.4-1.3-2.6-2.4c-1.2-1.1-2-2-2.6-2.4v2.8c0,0.6,0,1-0.1,1.3
			c0,0.3-0.2,0.6-0.3,1c-0.3,0.6-1.2,0.9-2.8,0.9c-1.5,0-2.5-0.3-2.8-1c-0.2-0.4-0.3-0.7-0.3-1c0-0.3-0.1-0.7-0.1-1.3V36.3
			c0-0.6,0-1,0.1-1.3c0-0.3,0.1-0.6,0.3-1c0.3-0.7,1.3-1,2.8-1c1.2,0,2,0.2,2.5,0.6c0.4,0.3,0.6,0.9,0.7,1.6c0,0.2,0,0.6,0,1v11.5
			c0.4-0.4,1.1-1,2-1.9c0.9-0.9,1.5-1.5,2-1.9l0.4-0.3c0.8-0.7,1.6-1,2.2-1c0.6,0,1.3,0.5,2.1,1.5c0.8,1,1.2,1.7,1.2,2.3
			c0,0.6-0.4,1.2-1.3,2L140.5,51.7z"/>
	</g>
	<g>
		<path class="st2" d="M79.7,14.4c0.1-1.3,1.1-2,2.8-2c0.9,0,1.6,0.1,2,0.2c0.4,0.1,0.8,0.4,0.9,0.7c0.2,0.4,0.3,0.7,0.3,0.9
			c0,0.3,0.1,0.7,0.1,1.2v12.3c0,0.5,0,0.9-0.1,1.2s-0.1,0.6-0.3,0.9c-0.3,0.6-1.1,0.9-2.4,0.9c-1.3,0-2.1-0.2-2.6-0.5
			c-0.4-0.3-0.7-0.8-0.8-1.4c-0.9,1.2-2.3,1.9-4.3,1.9c-2,0-3.9-0.9-5.6-2.8c-1.7-1.8-2.6-4-2.6-6.4s0.9-4.6,2.6-6.4
			c1.7-1.8,3.7-2.8,5.7-2.8c0.8,0,1.5,0.1,2.2,0.4c0.7,0.3,1.1,0.5,1.4,0.8S79.5,14.2,79.7,14.4z M73.3,21.7c0,0.8,0.3,1.5,0.9,2.1
			c0.6,0.6,1.3,0.9,2.2,0.9s1.6-0.3,2.2-0.9c0.6-0.6,0.9-1.3,0.9-2.1c0-0.8-0.3-1.5-0.8-2.1c-0.6-0.7-1.3-1-2.2-1
			c-0.9,0-1.7,0.3-2.2,1C73.6,20.2,73.3,21,73.3,21.7z"/>
		<path class="st2" d="M98.9,12.5c2.3,0,4.3,0.9,5.8,2.7c1.6,1.8,2.3,4,2.3,6.5v6.2c0,0.5,0,0.9-0.1,1.2c0,0.3-0.1,0.6-0.3,0.9
			c-0.3,0.6-1.2,0.9-2.7,0.9c-1.7,0-2.6-0.4-2.9-1.3c-0.1-0.4-0.2-1-0.2-1.8v-6.2c0-1-0.3-1.7-0.8-2.2c-0.6-0.5-1.3-0.8-2.2-0.8
			c-0.9,0-1.7,0.3-2.2,0.8c-0.6,0.6-0.9,1.3-0.9,2.2v6.2c0,0.5,0,0.9-0.1,1.2c0,0.3-0.1,0.6-0.3,0.9c-0.3,0.6-1.2,0.9-2.7,0.9
			c-1.5,0-2.4-0.3-2.7-0.9c-0.2-0.4-0.3-0.7-0.3-0.9c0-0.3,0-0.7,0-1.2V15.4c0-0.5,0-0.9,0-1.2c0-0.3,0.1-0.6,0.3-0.9
			c0.3-0.6,1.2-0.9,2.7-0.9c1.4,0,2.3,0.3,2.6,0.8c0.2,0.4,0.4,0.9,0.4,1.4c0.1-0.2,0.3-0.4,0.6-0.7c0.3-0.3,0.6-0.6,0.9-0.7
			C97.1,12.7,97.9,12.5,98.9,12.5z"/>
		<path class="st2" d="M126,12.7c1.4,0.6,2.1,1.3,2.1,2.2c0,0.4-0.1,0.8-0.3,1.2c-0.2,0.4-0.3,0.6-0.3,0.6l-9.2,20.6
			c-0.2,0.4-0.3,0.8-0.5,1c-0.1,0.2-0.3,0.5-0.6,0.7c-0.3,0.2-0.6,0.3-1.1,0.3c-0.4,0-1-0.2-1.9-0.5c-1.4-0.6-2.1-1.3-2.1-2.2
			c0-0.6,1.1-3.2,3.4-8l-7-11.8c-0.5-0.8-0.7-1.3-0.7-1.7c0-0.7,0.6-1.5,1.9-2.2c0.8-0.5,1.4-0.7,1.9-0.7c0.4,0,0.8,0.1,1.1,0.3
			c0.3,0.2,0.5,0.4,0.6,0.6c0.1,0.2,0.8,1.3,1.9,3.3c1.2,2,2.3,3.8,3.3,5.5c0.1-0.4,0.7-1.8,1.9-4.3c1.1-2.5,1.8-3.9,1.8-4
			c0.1-0.2,0.2-0.4,0.4-0.6c0.3-0.4,0.7-0.6,1.3-0.6C124.6,12.2,125.3,12.4,126,12.7z"/>
	</g>
</g>
</svg>
